<svg xmlns="http://www.w3.org/2000/svg" width="300" height="293" viewBox="0 0 300 293">
  <g fill="none" fill-rule="evenodd" transform="translate(2 -19)">
    <path fill="#3D4248" stroke="#6D7174" stroke-width="4" d="M148,21 C197.333333,21 246.666667,53.7779671 296,119.333901 L296,310 L0,310 L0,119.333901 C49.3333333,53.7779671 98.6666667,21 148,21 Z"/>
    <g transform="translate(76)">
      <g stroke="#979797" stroke-linecap="square" stroke-width="2" transform="rotate(22 19.271 107.229)">
        <path d="M16.5 56.5L92.5 56.5M56 93L56 17"/>
        <g transform="rotate(45 25.98 65.814)">
          <path d="M.5 39.5L76.5 39.5M40 76L40 0"/>
        </g>
      </g>
      <polygon fill="#D8D8D8" fill-opacity=".9" points="71 90.5 52.779 100.08 56.259 79.79 41.517 65.42 61.889 62.46 71 44 80.111 62.46 100.483 65.42 85.741 79.79 89.221 100.08"/>
    </g>
    <g transform="translate(51 72)">
      <g stroke="#979797" stroke-linecap="square" stroke-width="2" transform="rotate(22 7.066 36.934)">
        <path d="M6.60091743 19.0045455L32.3990826 19.0045455M20.0091743 31.2818182L20.0091743 5.71818182"/>
        <g transform="rotate(45 9.382 23.404)">
          <path d="M.169724771 13.2863636L25.9678899 13.2863636M13.5779817 25.5636364L13.5779817 0"/>
        </g>
      </g>
      <polygon fill="#D8D8D8" fill-opacity=".9" points="25.5 30.75 19.328 33.995 20.507 27.122 15.514 22.255 22.414 21.253 25.5 15 28.586 21.253 35.486 22.255 30.493 27.122 31.672 33.995"/>
    </g>
    <g transform="translate(194 72)">
      <g stroke="#979797" stroke-linecap="square" stroke-width="2" transform="rotate(22 7.066 36.934)">
        <path d="M6.60091743 19.0045455L32.3990826 19.0045455M20.0091743 31.2818182L20.0091743 5.71818182"/>
        <g transform="rotate(45 9.382 23.404)">
          <path d="M.169724771 13.2863636L25.9678899 13.2863636M13.5779817 25.5636364L13.5779817 0"/>
        </g>
      </g>
      <polygon fill="#D8D8D8" fill-opacity=".9" points="25.5 30.75 19.328 33.995 20.507 27.122 15.514 22.255 22.414 21.253 25.5 15 28.586 21.253 35.486 22.255 30.493 27.122 31.672 33.995"/>
    </g>
    <g transform="translate(19 91)">
      <g stroke="#979797" stroke-linecap="square" stroke-width="2" transform="rotate(22 7.066 36.934)">
        <path d="M6.60091743 19.0045455L32.3990826 19.0045455M20.0091743 31.2818182L20.0091743 5.71818182"/>
        <g transform="rotate(45 9.382 23.404)">
          <path d="M.169724771 13.2863636L25.9678899 13.2863636M13.5779817 25.5636364L13.5779817 0"/>
        </g>
      </g>
      <polygon fill="#D8D8D8" fill-opacity=".9" points="25.5 30.75 19.328 33.995 20.507 27.122 15.514 22.255 22.414 21.253 25.5 15 28.586 21.253 35.486 22.255 30.493 27.122 31.672 33.995"/>
    </g>
    <g transform="translate(0 119)">
      <g stroke="#979797" stroke-linecap="square" stroke-width="2" transform="rotate(22 7.066 36.934)">
        <path d="M6.60091743 19.0045455L32.3990826 19.0045455M20.0091743 31.2818182L20.0091743 5.71818182"/>
        <g transform="rotate(45 9.382 23.404)">
          <path d="M.169724771 13.2863636L25.9678899 13.2863636M13.5779817 25.5636364L13.5779817 0"/>
        </g>
      </g>
      <polygon fill="#D8D8D8" fill-opacity=".9" points="25.5 30.75 19.328 33.995 20.507 27.122 15.514 22.255 22.414 21.253 25.5 15 28.586 21.253 35.486 22.255 30.493 27.122 31.672 33.995"/>
    </g>
    <g transform="translate(227 91)">
      <g stroke="#979797" stroke-linecap="square" stroke-width="2" transform="rotate(22 7.066 36.934)">
        <path d="M6.60091743 19.0045455L32.3990826 19.0045455M20.0091743 31.2818182L20.0091743 5.71818182"/>
        <g transform="rotate(45 9.382 23.404)">
          <path d="M.169724771 13.2863636L25.9678899 13.2863636M13.5779817 25.5636364L13.5779817 0"/>
        </g>
      </g>
      <polygon fill="#D8D8D8" fill-opacity=".9" points="25.5 30.75 19.328 33.995 20.507 27.122 15.514 22.255 22.414 21.253 25.5 15 28.586 21.253 35.486 22.255 30.493 27.122 31.672 33.995"/>
    </g>
    <g transform="translate(245 119)">
      <g stroke="#979797" stroke-linecap="square" stroke-width="2" transform="rotate(22 7.066 36.934)">
        <path d="M6.60091743 19.0045455L32.3990826 19.0045455M20.0091743 31.2818182L20.0091743 5.71818182"/>
        <g transform="rotate(45 9.382 23.404)">
          <path d="M.169724771 13.2863636L25.9678899 13.2863636M13.5779817 25.5636364L13.5779817 0"/>
        </g>
      </g>
      <polygon fill="#D8D8D8" fill-opacity=".9" points="25.5 30.75 19.328 33.995 20.507 27.122 15.514 22.255 22.414 21.253 25.5 15 28.586 21.253 35.486 22.255 30.493 27.122 31.672 33.995"/>
    </g>
    <g fill="#C3C294" transform="translate(41 127)">
      <polygon points="105.5 0 166 125 45 125"/>
      <polygon points="152.5 63 213 134 92 134"/>
      <polygon points="60.5 63 121 134 0 134"/>
    </g>
    <g fill="#E8F4F4" stroke="#705151" transform="translate(41 233)">
      <polygon points="0 9 50 50 0 50"/>
      <polygon points="24 0 75 49 24 49"/>
      <polygon points="163 9 213 50 163 50" transform="matrix(-1 0 0 1 376 0)"/>
      <polygon points="138 0 189 49 138 49" transform="matrix(-1 0 0 1 327 0)"/>
      <polygon points="75 0 111 49 39 49"/>
      <polygon points="138 0 174 49 102 49"/>
      <polygon points="102 1 138 50 66 50"/>
    </g>
  </g>
</svg>
